<?xml version="1.0" standalone="no"?>
<!DOCTYPE svg PUBLIC "-//W3C//DTD SVG 20010904//EN"
 "http://www.w3.org/TR/2001/REC-SVG-20010904/DTD/svg10.dtd">
<svg version="1.0" xmlns="http://www.w3.org/2000/svg"
 width="500.000000pt" height="500.000000pt" viewBox="0 0 500.000000 500.000000"
 preserveAspectRatio="xMidYMid meet">
<metadata>
Created by potrace 1.14, written by Peter Selinger 2001-2017
</metadata>
<g transform="translate(0.000000,500.000000) scale(0.100000,-0.100000)"
fill="#000000" stroke="none">
<path d="M2196 4126 c-164 -95 -303 -181 -308 -191 -6 -10 -7 -25 -1 -37 5
-12 292 -184 733 -439 399 -230 735 -427 748 -438 22 -19 22 -21 22 -301 0
-175 4 -289 10 -301 6 -11 21 -19 36 -19 34 0 600 325 621 357 14 22 15 60 10
336 -4 171 -10 314 -15 318 -8 8 -1456 845 -1509 873 -18 9 -36 16 -40 16 -4
0 -142 -78 -307 -174z"/>
<path d="M1230 3565 c-159 -93 -270 -164 -277 -177 -10 -18 -13 -222 -13 -894
0 -816 1 -873 18 -892 23 -28 585 -352 610 -352 10 0 26 8 35 18 16 17 17 92
17 874 0 802 1 856 18 870 9 9 120 75 245 148 125 73 235 143 244 156 14 21
14 26 0 47 -16 24 -574 348 -610 353 -15 3 -110 -48 -287 -151z"/>
<path d="M3265 1919 c-402 -232 -738 -424 -747 -426 -10 -3 -123 55 -267 137
-264 150 -293 160 -306 107 -3 -12 -4 -177 -3 -366 l3 -345 275 -158 c165 -95
283 -157 295 -155 30 5 1517 865 1538 889 15 18 17 51 17 357 0 363 -2 381
-53 381 -12 0 -351 -190 -752 -421z"/>
</g>
</svg>
